<svg id="Capa_1" enable-background="new 0 0 512.003 512.003" height="512" viewBox="0 0 512.003 512.003" width="512" xmlns="http://www.w3.org/2000/svg"><g><path d="m146.067 290.18c1.463-1.464 4.688-4.578 6.32-6.12 8.148-7.72 5.226-21.357-5.38-25.05-1.91-.67-47.2-17-88.51-78.98-5.272-7.886-16.423-8.947-23.09-2.28-32.325 32.299-48.83 75.182-21.43 112.43-27.259 37.428-11.033 79.967 21.43 112.43 6.763 6.74 17.87 5.52 23.09-2.29 41.32-61.99 86.6-78.31 88.51-78.97 10.596-3.69 13.533-17.326 5.38-25.05-2.34-2.23-4.46-4.28-6.32-6.12z" fill="#93c5ec"/><path d="m147.007 321.35c-1.91.66-47.19 16.98-88.51 78.97-5.244 7.846-16.362 8.995-23.09 2.29-32.489-32.488-48.675-75.022-21.43-112.43-.53-.72-1.04-1.45-1.53-2.18h135.84c-.78.75-1.52 1.48-2.22 2.18 1.86 1.84 3.98 3.89 6.32 6.12 8.147 7.719 5.225 21.357-5.38 25.05z" fill="#6aa6fb"/><path d="m255.866 33c-1.306 0-32.341.204-63.442 17.977-28.994 16.568-63.558 51.708-63.558 125.023 0 8.284 6.716 15 15 15h112c8.284 0 15-6.716 15-15v-128c0-8.284-6.715-15-15-15z" fill="#f2d131"/><path d="m327.866 158.25c-8.284 0-15-6.716-15-15v-63.25c0-43.68 35.327-80 79-80 39.859 0 79 33.809 79 80 0 8.284-6.716 15-15 15s-15-6.716-15-15c0-28.741-24.936-50-49-50-27.019 0-49 22.43-49 50v63.25c0 8.284-6.715 15-15 15z" fill="#93c5ec"/><path d="m455.866 175c-30.327 0-55-24.673-55-55s24.673-55 55-55c30.455 0 56 24.64 56 55 0 30.339-25.526 55-56 55z" fill="#f2d131"/><path d="m462.306 303c-1.98 23.8-10.72 70.14-47.31 108.51-37.64 39.48-93.88 59.49-167.17 59.49-53.82 0-95.86-16.23-124.97-48.24-46.17-50.77-42.91-123.35-42.07-134.76 1.903-28.92 9.734-62.249 22.37-90.18 27.47-60.72 74.73-92.82 136.67-92.82 90.5 0 133.46 50.33 153.56 92.55 13.96 29.34 18.83 58.45 20.53 75.45 0 0-.53 30 48.39 30z" fill="#2e51bc"/><path d="m462.306 303c-1.98 23.8-10.72 70.14-47.31 108.51-37.64 39.48-93.88 59.49-167.17 59.49-53.82 0-95.86-16.23-124.97-48.24-46.17-50.77-42.91-123.35-42.07-134.76h338.98c5.98 7.5 18.08 15 42.54 15z" fill="#1e347b"/><path d="m293.256 226.609c-5.431-5.45-5.88-14.119-.99-20.119 5.125-6.285 14.574-7.417 21.11-2.091 6.301 5.151 7.417 14.594 2.09 21.11-5.379 6.601-15.533 7.591-22.21 1.1z" fill="#f9f9f9"/><path d="m199.916 363.28-128 80c-10.236 6.397-9.104 21.747 2.059 26.515l96 41c8.38 3.578 18.049-1.096 20.394-9.96l32-121c3.46-13.086-10.926-23.759-22.453-16.555z" fill="#6aa6fb"/><path d="m462.306 303h-134.44c-8.28 0-15-6.72-15-15s6.72-15 15-15h119.96c7.757 0 14.758 5.962 15.01 15 .061 1.93.12 7.28-.53 15z" fill="#f9f9f9"/><path d="m462.306 303h-134.44c-8.28 0-15-6.72-15-15h149.97c.061 1.93.12 7.28-.53 15z" fill="#e7f1f9"/></g></svg>