<svg height="512pt" viewBox="0 0 512 512" width="512pt" xmlns="http://www.w3.org/2000/svg"><path d="m195 511.398438c-41.351562 0-75-33.644532-75-75v-23.332032c0-8.292968 6.710938-15 15-15s15 6.707032 15 15v23.332032c0 24.816406 20.1875 45 45 45 23.890625 0 43.621094-18.675782 44.941406-42.507813.4375-8.292969 7.558594-15 15.789063-14.152344 8.277343.441407 14.605469 7.515625 14.152343 15.792969-2.167968 39.742188-35.070312 70.867188-74.882812 70.867188zm0 0" fill="#384949"/><path d="m375 256.398438c-8.402344 0-15 6.601562-15 15v120c0 8.402343 6.597656 15 15 15 41.398438 0 75-33.597657 75-75 0-41.398438-33.601562-75-75-75zm0 0" fill="#d7e9fd"/><path d="m450 331.398438c0 41.402343-33.601562 75-75 75-8.402344 0-15-6.597657-15-15v-60zm0 0" fill="#b4dafe"/><path d="m372 181.699219v299.398437c-.300781 0-.300781 0-.300781 0l-281.699219-59.699218-51.898438-75.597657 7.199219-14.402343 44.699219-90 281.699219-59.699219zm0 0" fill="#ececf1"/><path d="m372 331.398438v149.703124c-.300781 0-.300781 0-.300781 0l-281.699219-59.703124-51.898438-75.597657 7.199219-14.402343zm0 0" fill="#d7e9fd"/><path d="m390 166.398438v330c0 8.402343-6.597656 15-15 15s-15-6.597657-15-15v-330c0-8.398438 6.597656-15 15-15s15 6.601562 15 15zm0 0" fill="#ff5b5b"/><path d="m15 241.398438c-8.402344 0-15 6.601562-15 15v150c0 8.402343 6.597656 15 15 15h75v-180zm0 0" fill="#ff5b5b"/><path d="m512 134.398438c0 19.5-12.597656 36-30 42.300781v16.5c0 8.402343-6.597656 15-15 15s-15-6.597657-15-15v-16.800781c-9.902344-3.597657-18.601562-10.199219-24-19.5-4.199219-7.199219-1.800781-16.199219 5.398438-20.398438 7.203124-4.199219 16.5-1.800781 20.703124 5.398438 2.699219 4.5 7.5 7.5 12.898438 7.5 8.402344 0 15-6.597657 15-15 0-8.398438-6.597656-15-15-15-24.902344 0-45-20.097657-45-45 0-19.5 12.597656-36 30-42.296876v-17.101562c0-8.402344 6.597656-15 15-15s15 6.597656 15 15v17.398438c9.902344 3.601562 18.601562 10.203124 24 19.5 4.199219 7.203124 1.800781 16.199218-5.398438 20.402343-7.203124 4.199219-16.5 1.800781-20.703124-5.402343-2.699219-4.5-7.5-7.5-12.898438-7.5-8.402344 0-15 6.601562-15 15 0 8.402343 6.597656 15 15 15 24.902344 0 45 20.101562 45 45zm0 0" fill="#ff9f00"/><path d="m0 331.398438h90v90h-75c-8.402344 0-15-6.597657-15-15zm0 0" fill="#e02670"/><path d="m390 331.398438v165c0 8.402343-6.597656 15-15 15s-15-6.597657-15-15v-165zm0 0" fill="#e02670"/><g fill="#ff7816"><path d="m512 134.398438c0 19.5-12.597656 36-30 42.300781v16.5c0 8.402343-6.597656 15-15 15v-58.800781c8.402344 0 15-6.597657 15-15 0-8.398438-6.597656-15-15-15v-30c24.902344 0 45 20.101562 45 45zm0 0"/><path d="m467 59.398438v-59.398438c8.402344 0 15 6.597656 15 15v17.398438c9.902344 3.601562 18.601562 10.203124 24 19.5 4.199219 7.203124 1.800781 16.199218-5.398438 20.402343-7.203124 4.199219-16.5 1.800781-20.703124-5.402343-2.699219-4.5-7.5-7.5-12.898438-7.5zm0 0"/></g></svg>